<svg xmlns="http://www.w3.org/2000/svg" width="35" height="35" viewBox="0 0 64 64" id="monkey-hands">
    <path fill="#89664C" d="M9.4,32.5L2.1,61.9H14c-1.6-7.7,4-21,4-21L9.4,32.5z"/><path fill="#FFD6BB" d="M15.8,24.8c0,0,4.9-4.5,9.5-3.9c2.3,0.3-7.1,7.6-7.1,7.6s9.7-8.2,11.7-5.6c1.8,2.3-8.9,9.8-8.9,9.8
	s10-8.1,9.6-4.6c-0.3,3.8-7.9,12.8-12.5,13.8C11.5,43.2,6.3,39,9.8,24.4C11.6,17,13.3,25.2,15.8,24.8"/><path fill="#89664C" d="M54.8,32.5l7.3,29.4H50.2c1.6-7.7-4-21-4-21L54.8,32.5z"/><path fill="#FFD6BB" d="M48.4,24.8c0,0-4.9-4.5-9.5-3.9c-2.3,0.3,7.1,7.6,7.1,7.6s-9.7-8.2-11.7-5.6c-1.8,2.3,8.9,9.8,8.9,9.8
	s-10-8.1-9.7-4.6c0.4,3.8,8,12.8,12.6,13.8c6.6,1.3,11.8-2.9,8.3-17.5C52.6,17,50.9,25.2,48.4,24.8"/>
</svg>