<svg width="35" height="35" viewBox="0 0 35 35" fill="none" xmlns="http://www.w3.org/2000/svg">
<path d="M29.3672 22.5313C31.874 22.5313 33.9062 20.5235 33.9062 18.0469C33.9062 15.5702 31.874 13.5625 29.3672 13.5625C26.8603 13.5625 24.8281 15.5702 24.8281 18.0469C24.8281 20.5235 26.8603 22.5313 29.3672 22.5313Z" fill="#89664C"/>
<path d="M29.3672 21C30.9982 21 32.3203 19.6778 32.3203 18.0469C32.3203 16.4159 30.9982 15.0938 29.3672 15.0938C27.7362 15.0938 26.4141 16.4159 26.4141 18.0469C26.4141 19.6778 27.7362 21 29.3672 21Z" fill="#FFC5D3"/>
<path d="M5.57812 22.5313C8.05478 22.5313 10.0625 20.5235 10.0625 18.0469C10.0625 15.5702 8.05478 13.5625 5.57812 13.5625C3.10147 13.5625 1.09375 15.5702 1.09375 18.0469C1.09375 20.5235 3.10147 22.5313 5.57812 22.5313Z" fill="#89664C"/>
<path d="M5.57812 21C7.20909 21 8.53125 19.6778 8.53125 18.0469C8.53125 16.4159 7.20909 15.0938 5.57812 15.0938C3.94716 15.0938 2.625 16.4159 2.625 18.0469C2.625 19.6778 3.94716 21 5.57812 21Z" fill="#FFC5D3"/>
<path d="M23.7344 5.90625C24.3359 5.57812 24.7734 5.41406 24.7734 5.41406C23.0234 4.8125 21.4922 4.42968 20.125 4.26562C20.8359 3.71875 21.2734 3.55468 21.2734 3.55468C10.1172 1.96875 4.8125 8.47656 4.8125 14.2187H30.1875C29.8047 10.1719 27.5625 7.4375 23.7344 5.90625" fill="#89664C"/>
<path d="M30.2422 15.0938C30.2422 9.78906 24.5547 5.46875 17.5 5.46875C10.4453 5.46875 4.75781 9.78906 4.75781 15.0938C4.75781 16.3516 5.08594 17.5 5.63281 18.5938C5.08594 19.6875 4.75781 20.8906 4.75781 22.0938C4.75781 27.3984 10.4453 31.7188 17.5 31.7188C24.5547 31.7188 30.2422 27.3984 30.2422 22.0938C30.2422 20.8359 29.9141 19.6875 29.3672 18.5938C29.9141 17.5 30.2422 16.2969 30.2422 15.0938Z" fill="#89664C"/>
<path d="M28.4375 15.4219C28.4375 6.1797 17.5 12.0859 17.5 12.0859C17.5 12.0859 6.5625 6.1797 6.5625 15.4219C6.5625 17.9922 8.14844 20.3438 10.6641 21.8203C9.95313 22.75 9.51562 23.7891 9.51562 24.9375C9.51562 28.2734 13.125 30.9531 17.5547 30.9531C21.9844 30.9531 25.5937 28.2734 25.5937 24.9375C25.5937 23.7891 25.1563 22.75 24.4453 21.8203C26.8516 20.3438 28.4375 17.9922 28.4375 15.4219" fill="#E0AC7E"/>
<path d="M19.1953 21.1641C19.1953 21.7656 18.9766 22.3125 18.6484 22.3125C18.3203 22.3125 18.1016 21.8203 18.1016 21.1641C18.1016 20.5625 18.3203 20.0156 18.6484 20.0156C18.9766 20.0703 19.1953 20.5625 19.1953 21.1641Z" fill="#3B302A"/>
<path d="M16.8984 21.1641C16.8984 21.7656 16.6797 22.3125 16.3516 22.3125C16.0234 22.3125 15.8047 21.8203 15.8047 21.1641C15.8047 20.5625 16.0234 20.0156 16.3516 20.0156C16.625 20.0703 16.8984 20.5625 16.8984 21.1641Z" fill="#3B302A"/>
<path d="M22.2578 19.7969C23.3149 19.7969 24.1719 18.6951 24.1719 17.3359C24.1719 15.9768 23.3149 14.875 22.2578 14.875C21.2007 14.875 20.3438 15.9768 20.3438 17.3359C20.3438 18.6951 21.2007 19.7969 22.2578 19.7969Z" fill="#3B302A"/>
<path d="M12.7422 19.7969C13.7993 19.7969 14.6562 18.6951 14.6562 17.3359C14.6562 15.9768 13.7993 14.875 12.7422 14.875C11.6851 14.875 10.8281 15.9768 10.8281 17.3359C10.8281 18.6951 11.6851 19.7969 12.7422 19.7969Z" fill="#3B302A"/>
<path d="M21 26.3682C21 27.1966 18.2347 29.0556 17.4062 29.0556C16.5778 29.0556 14 27.1966 14 26.3682C14 25.5398 16.5778 26.3682 17.4062 26.3682C18.2347 26.3682 21 25.5398 21 26.3682Z" fill="#3B302A"/>
</svg>
