<svg viewBox="0 0 27 29" fill="currentColor" xmlns="http://www.w3.org/2000/svg" class="app-logo" data-v-0d3d2909=""><g clip-path="url(#clip0_372_1644)"><path fill="currentColor" d="M26.0425 12.5446C25.5122 12.5446 25.0851 12.9808 25.0851 13.5223V18.832C25.0851 23.0586 21.7119 26.5031 17.5728 26.5031H9.4124H9.13253C8.24873 26.5031 7.70372 26.5031 6.62844 26.0368C6.58425 26.0218 6.54006 26.0067 6.49587 25.9917C6.49587 25.9917 6.49587 25.9917 6.48114 25.9917C6.39276 25.9616 6.30438 25.9616 6.20127 25.9616C6.18654 25.9616 6.18654 25.9616 6.17181 25.9616C6.12762 25.9616 6.08343 25.9767 6.03924 25.9767L2.16526 26.8641L2.8723 23.0887C2.91649 22.8631 2.88703 22.6374 2.78392 22.4419C2.35675 21.6297 2.09161 20.7422 1.97377 19.8397H13.4926C16.1882 19.8397 18.5155 17.7941 18.9132 15.0866C18.9574 14.8008 18.9721 14.515 18.9721 14.2293C18.9721 13.9435 18.9574 13.6577 18.9132 13.3719C18.7512 12.3039 18.2946 11.3563 17.6464 10.5742H25.7185H26.0425C26.2929 10.5742 26.5433 10.4689 26.7201 10.2884C26.8969 10.1079 27 9.85218 27 9.59647C26.9852 4.30187 22.7577 0 17.5728 0H9.4124C4.22746 0 -4.05563e-05 4.31691 -4.05563e-05 9.61152V14.9212C-4.05563e-05 15.4627 0.427128 15.8989 0.957406 15.8989C1.48768 15.8989 1.91485 15.4627 1.91485 14.9212V9.61152C1.91485 5.3999 5.28801 1.95539 9.4124 1.95539H17.5728C21.3731 1.95539 24.5253 4.87344 25.0114 8.61878H13.4926C10.8117 8.61878 8.46968 10.6644 8.07197 13.3719C8.02778 13.6577 8.01305 13.9435 8.01305 14.2293C8.01305 14.515 8.02778 14.8008 8.07197 15.0866C8.234 16.1546 8.69063 17.1022 9.33875 17.8843H0.942676C0.913216 17.8843 0.883757 17.8843 0.854297 17.8843C0.824837 17.8843 0.810107 17.8843 0.780647 17.8994C0.765917 17.8994 0.765917 17.8994 0.751187 17.8994C0.721727 17.8994 0.692267 17.9144 0.662807 17.9144C0.633347 17.9295 0.603887 17.9295 0.574428 17.9445C0.544968 17.9595 0.530238 17.9746 0.500778 17.9746C0.500778 17.9746 0.500778 17.9746 0.486048 17.9746C0.456588 17.9896 0.441858 18.0047 0.412398 18.0197C0.412398 18.0197 0.397668 18.0197 0.397668 18.0348C0.382938 18.0498 0.353478 18.0648 0.338748 18.0799C0.338748 18.0799 0.324018 18.0799 0.324018 18.0949C0.294558 18.11 0.279829 18.14 0.250369 18.1551L0.235639 18.1701C0.220909 18.1852 0.206179 18.2002 0.191449 18.2303C0.191449 18.2453 0.176719 18.2453 0.176719 18.2604C0.161989 18.2754 0.147259 18.2905 0.132529 18.3205L0.117799 18.3356C0.103069 18.3506 0.0883392 18.3807 0.0883392 18.3957C0.0883392 18.3957 0.0883392 18.4108 0.0736092 18.4108C0.0588792 18.4409 0.0441493 18.4559 0.0441493 18.486V18.501C0.0294193 18.5311 0.0294193 18.5462 0.0146894 18.5762V18.5913C0.0146894 18.6214 -4.05563e-05 18.6364 -4.05563e-05 18.6665C-4.05563e-05 18.6815 -4.05563e-05 18.6815 -4.05563e-05 18.6966C-4.05563e-05 18.7116 -4.05563e-05 18.7417 -0.0147705 18.7567C-0.0147705 18.7718 -0.0147705 18.8019 -0.0147705 18.8169C-0.0147705 18.832 -0.0147705 18.832 -0.0147705 18.847C-0.0147705 20.291 0.309288 21.735 0.927946 23.0285L0.103069 27.3906C0.0146894 27.8418 0.161989 28.2931 0.471318 28.6089C0.721727 28.8496 1.04579 28.985 1.38457 28.985C1.44349 28.985 1.50241 28.985 1.56133 28.9699C1.59079 28.9699 1.63498 28.9549 1.66444 28.9549L6.14235 27.9321C7.40912 28.4435 8.20454 28.4435 9.1178 28.4284H9.38294H17.5433C22.743 28.4284 26.9705 24.1115 26.9705 18.8019V13.5223C27 12.9808 26.5728 12.5446 26.0425 12.5446ZM9.97214 14.7858C9.94268 14.6053 9.92795 14.4248 9.92795 14.2293C9.92795 14.0337 9.94268 13.8532 9.97214 13.6727C10.2373 11.9129 11.7545 10.5742 13.5073 10.5742C15.2602 10.5742 16.7774 11.8978 17.0425 13.6727C17.072 13.8532 17.0867 14.0337 17.0867 14.2293C17.0867 14.4248 17.072 14.6053 17.0425 14.7858C16.7774 16.5456 15.2602 17.8843 13.5073 17.8843C11.7545 17.8843 10.2373 16.5456 9.97214 14.7858Z"/></g><defs><clipPath id="clip0_372_1644"><rect fill="currentColor" width="27" height="29"/></clipPath></defs></svg>